<svg xmlns="http://www.w3.org/2000/svg" xmlns:xlink="http://www.w3.org/1999/xlink" width="1200" height="580" version="1.1"><rect id="backgroundrect" width="100%" height="100%" x="0" y="0" fill="none" stroke="none"/>
      
    <g class="currentLayer" style=""><title>Layer 1</title><path d="M620.9306322021484,65.622 c-28.692,61.724 -23.266,100.422 16.275,116.094 c59.313,23.508 200.347,32.911 259.299,83.906 c58.95,50.994 238.697,11.572 269.438,-75.95 C1196.6836322021484,102.15 1252.0326322021485,-32.75 960.1716322021484,-32.75 c-194.576,0 -307.654,32.79 -339.24,98.372 h-0.0010000000000000002 z" fill="#FFFA72" fill-rule="nonzero" id="svg_1" class=""/><path d="M693.9825822381902,45.53271447578012 c-28.692,61.724 -23.266,100.422 16.275,116.094 c59.313,23.508 200.347,32.911 259.299,83.906 c58.95,50.994 238.697,11.572 269.438,-75.95 C1269.73558223819,82.06071447578012 1325.0845822381903,-52.83928552421988 1033.2235822381901,-52.83928552421988 c-194.576,0 -307.654,32.79 -339.24,98.372 h-0.0010000000000000002 z" fill="#FFFA72" fill-rule="nonzero" transform="translate(-1800,60) scale(2.799999952316284) " style="position: relative; z-index: 0; fill: rgb(199, 225, 243);" id="svg_2" class=""/><path d="M691.6853533176079,46.16445240580532 c-28.692,61.724 -23.266,100.422 16.275,116.094 c59.313,23.508 200.347,32.911 259.299,83.906 c58.95,50.994 238.697,11.572 269.438,-75.95 C1267.4383533176078,82.69245240580533 1322.787353317608,-52.20754759419468 1030.926353317608,-52.20754759419468 c-194.576,0 -307.654,32.79 -339.24,98.372 h-0.0010000000000000002 z" fill="#FFFA72" fill-rule="nonzero" transform="translate(-1650,55) scale(2.6500000953674316) " style="position: relative; z-index: 1; fill: rgb(184, 207, 230);" id="svg_3" class=""/><path d="M689.1124528808593,46.872 c-28.692,61.724 -23.266,100.422 16.275,116.094 c59.313,23.508 200.347,32.911 259.299,83.906 c58.95,50.994 238.697,11.572 269.438,-75.95 C1264.8654528808593,83.4 1320.2144528808594,-51.5 1028.3534528808593,-51.5 c-194.576,0 -307.654,32.79 -339.24,98.372 h-0.0010000000000000002 z" fill="#FFFA72" fill-rule="nonzero" transform="translate(-1500,50) scale(2.5) " style="position: relative; z-index: 2; fill: rgb(169, 190, 218);" id="svg_4" class=""/><path d="M686.2110968470512,47.66987288007829 c-28.692,61.724 -23.266,100.422 16.275,116.094 c59.313,23.508 200.347,32.911 259.299,83.906 c58.95,50.994 238.697,11.572 269.438,-75.95 C1261.9640968470512,84.1978728800783 1317.3130968470514,-50.70212711992171 1025.452096847051,-50.70212711992171 c-194.576,0 -307.654,32.79 -339.24,98.372 h-0.0010000000000000002 z" fill="#FFFA72" fill-rule="nonzero" transform="translate(-1350,45) scale(2.3499999046325684) " style="position: relative; z-index: 3; fill: rgb(154, 173, 206);" id="svg_5" class=""/><path d="M682.9141066659774,48.57654514667023 c-28.692,61.724 -23.266,100.422 16.275,116.094 c59.313,23.508 200.347,32.911 259.299,83.906 c58.95,50.994 238.697,11.572 269.438,-75.95 C1258.6671066659774,85.10454514667023 1314.0161066659775,-49.79545485332977 1022.1551066659774,-49.79545485332977 c-194.576,0 -307.654,32.79 -339.24,98.372 h-0.0010000000000000002 z" fill="#FFFA72" fill-rule="nonzero" transform="translate(-1200,40) scale(2.200000047683716) " style="position: relative; z-index: 4; fill: rgb(139, 155, 193);" id="svg_6" class=""/><path d="M679.1346241750863,49.6159027936029 c-28.692,61.724 -23.266,100.422 16.275,116.094 c59.313,23.508 200.347,32.911 259.299,83.906 c58.95,50.994 238.697,11.572 269.438,-75.95 C1254.8876241750863,86.1439027936029 1310.2366241750865,-48.7560972063971 1018.3756241750863,-48.7560972063971 c-194.576,0 -307.654,32.79 -339.24,98.372 h-0.0010000000000000002 z" fill="#FFFA72" fill-rule="nonzero" transform="translate(-1050,35) scale(2.049999952316284) " style="position: relative; z-index: 5; fill: rgb(125, 138, 181);" id="svg_7" class=""/><path d="M674.7583846190525,50.81936862743991 c-28.692,61.724 -23.266,100.422 16.275,116.094 c59.313,23.508 200.347,32.911 259.299,83.906 c58.95,50.994 238.697,11.572 269.438,-75.95 C1250.5113846190525,87.34736862743992 1305.8603846190526,-47.55263137256009 1013.9993846190525,-47.55263137256009 c-194.576,0 -307.654,32.79 -339.24,98.372 h-0.0010000000000000002 z" fill="#FFFA72" fill-rule="nonzero" transform="translate(-900,30) scale(1.899999976158142) " style="position: relative; z-index: 6; fill: rgb(110, 121, 169);" id="svg_8" class=""/><path d="M669.631932686942,52.229142857142854 c-28.692,61.724 -23.266,100.422 16.275,116.094 c59.313,23.508 200.347,32.911 259.299,83.906 c58.95,50.994 238.697,11.572 269.438,-75.95 C1245.384932686942,88.75714285714287 1300.7339326869421,-46.142857142857146 1008.872932686942,-46.142857142857146 c-194.576,0 -307.654,32.79 -339.24,98.372 h-0.0010000000000000002 z" fill="#FFFA72" fill-rule="nonzero" transform="translate(-750,25) scale(1.75) " style="position: relative; z-index: 7; fill: rgb(95, 103, 156);" id="svg_9" class=""/><path d="M663.5442711846639,53.903249708961695 c-28.692,61.724 -23.266,100.422 16.275,116.094 c59.313,23.508 200.347,32.911 259.299,83.906 c58.95,50.994 238.697,11.572 269.438,-75.95 C1239.2972711846637,90.4312497089617 1294.6462711846639,-44.468750291038305 1002.7852711846639,-44.468750291038305 c-194.576,0 -307.654,32.79 -339.24,98.372 h-0.0010000000000000002 z" fill="#FFFA72" fill-rule="nonzero" transform="translate(-600,20) scale(1.600000023841858) " style="position: relative; z-index: 8; fill: rgb(80, 86, 144);" id="svg_10" class=""/><path d="M656.1970937511148,55.923723429195675 c-28.691999999999997,61.72399999999999 -23.265999999999995,100.42199999999998 16.274999999999995,116.09399999999998 c59.312999999999995,23.507999999999996 200.34699999999998,32.910999999999994 259.2989999999999,83.90599999999999 c58.949999999999996,50.99399999999999 238.69699999999997,11.571999999999997 269.43799999999993,-75.94999999999999 C1231.9500937511148,92.45172342919568 1287.299093751115,-42.44827657080431 995.4380937511148,-42.44827657080431 c-194.57599999999996,0 -307.65399999999994,32.78999999999999 -339.23999999999995,98.37199999999999 h-0.001 z" fill="#FFFA72" fill-rule="nonzero" transform="translate(-450,15) scale(1.4500000476837158) " style="position: relative; z-index: 9; fill: rgb(65, 69, 132);" id="svg_11" class=""/><path d="M647.1544061799932,58.41046242018709 c-28.692,61.724 -23.266,100.422 16.275,116.094 c59.313,23.508 200.347,32.911 259.299,83.906 c58.95,50.994 238.697,11.572 269.438,-75.95 C1222.9074061799931,94.9384624201871 1278.2564061799933,-39.96153757981291 986.3954061799932,-39.96153757981291 c-194.576,0 -307.654,32.79 -339.24,98.372 h-0.0010000000000000002 z" fill="#FFFA72" fill-rule="nonzero" transform="translate(-300,10) scale(1.2999999523162842) " style="position: relative; z-index: 10; fill: rgb(50, 51, 119);" id="svg_12" class=""/><path d="M635.7527650836813,61.54591360684921 c-28.692,61.724 -23.266,100.422 16.275,116.094 c59.313,23.508 200.347,32.911 259.299,83.906 c58.95,50.994 238.697,11.572 269.438,-75.95 C1211.5057650836811,98.07391360684922 1266.8547650836813,-36.82608639315079 974.9937650836813,-36.82608639315079 c-194.576,0 -307.654,32.79 -339.24,98.372 h-0.0010000000000000002 z" fill="#FFFA72" fill-rule="nonzero" transform="translate(-150,5) scale(1.149999976158142) " style="position: relative; z-index: 11; fill: rgb(35, 34, 107);" id="svg_13" class=""/></g></svg>